<svg width="23" height="18" viewBox="0 0 23 18" fill="none" xmlns="http://www.w3.org/2000/svg">
<path d="M14.1629 5.90872C14.3505 5.8172 14.4284 5.59092 14.3369 5.40332C14.2453 5.21572 14.0191 5.13783 13.8314 5.22936L13.9972 5.56904L14.1629 5.90872ZM7.33626 8.81869L7.17054 8.47901C7.04198 8.54173 6.95984 8.67167 6.95833 8.81471C6.95683 8.95776 7.03621 9.08939 7.16342 9.15481L7.33626 8.81869ZM13.8243 12.58C14.01 12.6755 14.2378 12.6024 14.3333 12.4167C14.4287 12.2311 14.3556 12.0032 14.17 11.9078L13.9972 12.2439L13.8243 12.58ZM15.3334 5.33626H14.9555C14.9555 5.86552 14.5264 6.29458 13.9972 6.29458V6.67253V7.05048C14.9439 7.05048 15.7114 6.283 15.7114 5.33626H15.3334ZM13.9972 6.67253V6.29458C13.4679 6.29458 13.0389 5.86552 13.0389 5.33626H12.6609H12.283C12.283 6.283 13.0504 7.05048 13.9972 7.05048V6.67253ZM12.6609 5.33626H13.0389C13.0389 4.807 13.4679 4.37795 13.9972 4.37795V4V3.62205C13.0504 3.62205 12.283 4.38953 12.283 5.33626H12.6609ZM13.9972 4V4.37795C14.5264 4.37795 14.9555 4.807 14.9555 5.33626H15.3334H15.7114C15.7114 4.38953 14.9439 3.62205 13.9972 3.62205V4ZM8.67253 8.81869H8.29458C8.29458 9.34795 7.86553 9.777 7.33626 9.777V10.155V10.5329C8.283 10.5329 9.05048 9.76543 9.05048 8.81869H8.67253ZM7.33626 10.155V9.777C6.807 9.777 6.37795 9.34795 6.37795 8.81869H6H5.62205C5.62205 9.76543 6.38953 10.5329 7.33626 10.5329V10.155ZM6 8.81869H6.37795C6.37795 8.28943 6.807 7.86038 7.33626 7.86038V7.48243V7.10447C6.38953 7.10447 5.62205 7.87196 5.62205 8.81869H6ZM7.33626 7.48243V7.86038C7.86553 7.86038 8.29458 8.28943 8.29458 8.81869H8.67253H9.05048C9.05048 7.87196 8.283 7.10447 7.33626 7.10447V7.48243ZM15.3334 12.2439H14.9555C14.9555 12.7732 14.5264 13.2022 13.9972 13.2022V13.5802V13.9581C14.9439 13.9581 15.7114 13.1906 15.7114 12.2439H15.3334ZM13.9972 13.5802V13.2022C13.4679 13.2022 13.0389 12.7732 13.0389 12.2439H12.6609H12.283C12.283 13.1906 13.0504 13.9581 13.9972 13.9581V13.5802ZM12.6609 12.2439H13.0389C13.0389 11.7146 13.4679 11.2856 13.9972 11.2856V10.9076V10.5297C13.0504 10.5297 12.283 11.2972 12.283 12.2439H12.6609ZM13.9972 10.9076V11.2856C14.5264 11.2856 14.9555 11.7146 14.9555 12.2439H15.3334H15.7114C15.7114 11.2972 14.9439 10.5297 13.9972 10.5297V10.9076ZM13.9972 5.56904L13.8314 5.22936L7.17054 8.47901L7.33626 8.81869L7.50198 9.15838L14.1629 5.90872L13.9972 5.56904ZM7.33626 8.81869L7.16342 9.15481L13.8243 12.58L13.9972 12.2439L14.17 11.9078L7.5091 8.48257L7.33626 8.81869Z" fill="#00D0FF"/>
<rect x="0.5" y="0.5" width="22" height="17" rx="2.5" stroke="#00D0FF"/>
</svg>
