<svg width="9" height="8" viewBox="0 0 9 8" fill="none" xmlns="http://www.w3.org/2000/svg">
<path d="M3.16828 2.87022H5.83172L5.59089 5.48681C5.57797 5.62717 5.5142 5.75757 5.41206 5.85248C5.30992 5.9474 5.17676 6 5.03862 6H3.95314C3.81513 6 3.68209 5.94734 3.58016 5.85237C3.47823 5.7574 3.41477 5.62697 3.40222 5.48668L3.16828 2.87022Z" stroke="#FF4A4A" stroke-width="0.5" stroke-linejoin="round"/>
<path d="M3.35514 2H5.64486C5.69149 2 5.73768 2.00938 5.78076 2.02759C5.82385 2.04581 5.863 2.07251 5.89598 2.10617C5.92896 2.13983 5.95512 2.17978 5.97297 2.22376C5.99081 2.26774 6 2.31487 6 2.36247V2.65103H3V2.36247C3 2.31487 3.00919 2.26774 3.02703 2.22376C3.04488 2.17978 3.07104 2.13983 3.10402 2.10617C3.137 2.07251 3.17615 2.04581 3.21924 2.02759C3.26232 2.00938 3.30851 2 3.35514 2Z" stroke="#FF4A4A" stroke-width="0.5" stroke-linejoin="round"/>
<rect x="0.25" y="0.25" width="8.5" height="7.5" rx="2.75" stroke="#FF7866" stroke-width="0.7"/>
</svg>
